<?xml version="1.0" standalone="no"?>
<svg viewBox="0 0 200 200" xmlns="http://www.w3.org/2000/svg">
  <path fill="#F1C21B" d="M36.8,-61.6C47.9,-50.1,57.3,-40.2,61.8,-28.7C66.4,-17.1,66.2,-3.8,64.4,9.3C62.6,22.4,59.1,35.3,51.5,45.5C44,55.6,32.3,63,18.5,70.5C4.7,78,-11.3,85.5,-25,82.6C-38.6,79.7,-49.9,66.3,-59.9,52.9C-69.9,39.5,-78.7,26,-79.4,12.2C-80,-1.5,-72.6,-15.7,-66.7,-31.3C-60.9,-47,-56.6,-64.1,-45.7,-75.8C-34.8,-87.5,-17.4,-93.7,-2.3,-90.2C12.8,-86.6,25.7,-73.2,36.8,-61.6Z" transform="translate(100 100)" />
</svg>
