<?xml version="1.0" standalone="no"?>
<svg viewBox="0 0 200 200" xmlns="http://www.w3.org/2000/svg">
  <path fill="#F1C21B" d="M48.1,-70.9C61.8,-66.1,72,-51.8,72.4,-37.1C72.8,-22.4,63.4,-7.3,61.1,8.8C58.8,24.9,63.6,42.1,59.2,56.6C54.9,71.1,41.3,82.9,25.8,87C10.3,91.2,-7.2,87.7,-21.5,80.3C-35.7,72.8,-46.8,61.5,-58.3,49.7C-69.7,37.9,-81.7,25.7,-85.5,11.2C-89.4,-3.4,-85.2,-20.2,-74.3,-29.8C-63.5,-39.5,-46.1,-42.1,-32.6,-47C-19.1,-52,-9.6,-59.2,3.8,-65.2C17.2,-71.1,34.5,-75.8,48.1,-70.9Z" transform="translate(100 100)" />
</svg>
